<svg xmlns="http://www.w3.org/2000/svg" viewBox="0 0 512 512" width="512" height="512" fill="none">
  <defs>
    <linearGradient id="bgGrad4" x1="0%" y1="0%" x2="100%" y2="100%">
      <stop offset="0%" stop-color="#38BDF8" />
      <stop offset="100%" stop-color="#7C3AED" />
    </linearGradient>
    <filter id="dropShadow4" x="-10%" y="-10%" width="130%" height="130%">
      <feDropShadow dx="0" dy="12" stdDeviation="16" flood-color="#000000" flood-opacity="0.28" />
    </filter>
  </defs>
  <rect x="20" y="20" width="472" height="472" rx="104" fill="url(#bgGrad4)" stroke="rgba(255,255,255,0.25)" stroke-width="3" />
  <g fill="#FFFFFF" filter="url(#dropShadow4)">
    <path fill-rule="evenodd" clip-rule="evenodd" d="M256 60 C150 60 75 145 75 270 C75 385 160 452 280 452 C350 452 405 410 455 170 C405 315 320 358 256 358 C185 358 145 305 145 240 L395 240 C405 240 405 185 375 140 C340 90 300 60 256 60 Z M170 190 C180 135 220 115 256 115 C295 115 330 135 330 190 L170 190 Z" />
  </g>
</svg>